<svg id="Capa_1" data-name="Capa 1" xmlns="http://www.w3.org/2000/svg" viewBox="0 0 1200 200"><defs><style>.cls-1,.cls-5{fill:#00f900;}.cls-2{fill:#ff40ff;}.cls-3,.cls-6{fill:#ff9300;}.cls-4{fill:#0433ff;}.cls-5,.cls-6,.cls-7{stroke:#000;}.cls-5,.cls-6,.cls-7,.cls-8{stroke-miterlimit:10;}.cls-7{fill:#ff2600;}.cls-8{fill:#00fdff;stroke:#00fdff;}</style></defs><title>foto</title><path class="cls-1" d="M-61.32,50.25C30.1,54.89,118.55,80,205.87,105.74c43.75,12.9,87.53,27.09,132.14,36.76,21.66,4.69,44,7.57,66.14,4.77,19-2.39,36.89-9.23,54.09-17.3,19.17-9,37.62-19.49,57.23-27.51A215.16,215.16,0,0,1,581,87.52c44.78-3.36,90.23,3.24,134.48,9.65,20.29,2.94,40.58,6.66,60,13.21,21.08,7.11,38.54,18.57,56.81,30.91,16.56,11.19,34.14,18.87,54.17,20.92s40.4-1,59.79-6.23c42.55-11.42,82.72-32,122.91-49.66,22.24-9.78,44.31-20.27,66.91-29.21,19.46-7.7,42.36-12.91,61.08-.46,8.19,5.44,14.19,13.47,15.34,23.4.22,1.89,3.22,1.92,3,0-1.73-14.89-12.93-25.81-26.59-30.9-18.8-7-39.15-.92-56.88,6.38-43.91,18.07-86.89,38.49-130.52,57.25-39.71,17.07-85.57,34.61-129.31,24-22.28-5.42-39.14-19.42-58-31.45C796.79,114.26,777.4,107,757.44,102c-20.12-5-40.7-7.78-61.23-10.45-22.66-2.94-45.36-5.84-68.18-7.16-43.93-2.53-86.39,2.3-126.59,20.95-19.5,9.05-38.2,19.82-58.12,28-21,8.58-42.73,13-65.49,11.87-24.06-1.19-47.57-7.25-70.74-13.47-22-5.92-43.94-12.24-65.82-18.66C153.22,87.21,64.9,59.39-26.77,49.9Q-44,48.12-61.32,47.25c-1.93-.1-1.93,2.9,0,3Z"/><path class="cls-2" d="M-41.17,152.21a374.26,374.26,0,0,0,142.39,8.84c47.34-6.27,92.72-21.87,139.46-31.11,49-9.68,98.14-8.52,147.34-.86,47.89,7.45,94.84,19.76,142.26,29.58,45.55,9.42,92.83,17.81,139.47,12.88a200.42,200.42,0,0,0,62.8-17.07c20.79-9.53,40-22,59.61-33.75,40.48-24.21,84-42.58,129.89-53.69,11.27-2.72,22.66-5.05,34.11-6.87C969.52,58,982.77,57.16,995,64c9.58,5.4,17.18,13.63,25.16,21A232.71,232.71,0,0,0,1043.41,104c75.31,53.58,171.37,59.38,260.63,58.11,12.54-.17,25.07-.47,37.61-.77,1.93,0,1.93-3,0-3-93.39,2.23-193,4-276.63-44.07-19.15-11-35.54-24.73-51.66-39.69-6.84-6.34-14.14-12.5-22.9-16-9.57-3.81-19.87-3.44-29.9-2.07C916.17,62.54,872.4,76.59,832,95.8c-41.85,19.91-79,50.79-123.47,64.82-46.67,14.71-97,9.71-144.34,1.49C471,145.93,378.34,112.79,282.48,120.88c-47.63,4-93.23,19-139.64,29.48-48.64,11-98.15,14.2-147.56,6.42-12-1.9-23.89-4.43-35.65-7.46-1.87-.48-2.67,2.41-.8,2.89Z"/><path class="cls-3" d="M-7.87,96.44C91.52,75,192.45,101,292.63,96.91c43.82-1.78,88.13-9.15,128-28.24,21.59-10.35,40.41-25,60.65-37.56,20.65-12.88,43.23-21.7,67.43-24.94C596.93-.3,641.37,17.06,681.43,42.65,700.48,54.82,718.61,68.36,737,81.43c19.93,14.13,40.4,27.47,61.47,39.84a820.73,820.73,0,0,0,130.9,62.13c21.65,8,45,15.13,68.39,12.37,17.25-2,32.8-9.8,45.52-21.5,26.31-24.2,39.66-59,59.57-88,12.85-18.73,29.26-34.16,47-48.25,5-3.93,10-7.77,15-11.59,4.55-3.44,9.13-7.61,14.53-9.63,9.48-3.56,19,2.21,28.09,4.42,6,1.47,11.65,1.33,16.14-3.34,1.34-1.4-.78-3.52-2.12-2.13-6.94,7.23-18.08.86-26-1.41-7.66-2.21-14.64-2.43-21.65,1.84-9.22,5.61-17.73,13-26.17,19.72A297.77,297.77,0,0,0,1122,58.52c-26.72,26.84-40.8,61.91-62.49,92.38-10.25,14.41-22.76,27.71-39,35.36-22.66,10.67-48,7.6-71.27.68-23.78-7.08-46.94-17-69.54-27.11q-33.25-14.94-65.11-32.78t-62-38.38c-18.82-12.84-37-26.59-55.82-39.42C660.63,24.57,620.92,3.34,576.17,1.8a166.92,166.92,0,0,0-66.28,11.29c-21.63,8.47-40.2,22.16-59.42,34.88C411.11,74,366.68,87.35,319.94,92,222,101.81,124.23,76.41,26.39,87.74q-17.65,2.06-35,5.81c-1.89.4-1.09,3.3.79,2.89Z"/><path class="cls-4" d="M-57.46,21.29C-5.84,36.22,49.28,21.6,100.7,37.08c46.84,14.1,77.5,54.13,104.4,92.49,6.44,9.18,12.78,18.44,19.3,27.58,6.83,9.59,13.75,19.5,23,26.92,19.55,15.63,47.1,14.12,70.72,15.38,57.45,3.06,115.65,5,172.5-5.51,49.29-9.08,97.66-27.59,136.55-59.83C647.88,117,665.92,96.45,689.49,83s50.13-19.72,76.4-25c6.28-1.26,13-3.22,19.34-3.49,9.62-.39,13.47,6.21,17.86,13.52a324.41,324.41,0,0,0,21.83,31.73c16.57,21.44,35.34,41,54.37,60.28C898,179,916.44,198.3,937.44,214.61,957.79,230.42,980.6,242,1005,250.15c26.13,8.72,53.31,13.87,80.44,18.36q42.94,7.11,86.34,11.09,22.2,2,44.48,3.22c7,.38,14,.95,21,.92,4.09,0,8.3-.51,11.36-3.52,6.12-6,5.14-17.87,4.08-25.5a67.28,67.28,0,0,0-11.3-28.95,65.9,65.9,0,0,0-21.48-19.71,1.5,1.5,0,0,0-1.51,2.59c20.51,11.82,33.92,35.52,31.69,59.4-.32,3.44-1,7.53-3.6,10.05-3,2.89-7.34,2.68-11.14,2.59-7.64-.18-15.29-.65-22.91-1.08q-21.64-1.23-43.21-3.25-43.57-4.07-86.77-11.38c-26.24-4.43-52.51-9.55-77.77-18.1A223.4,223.4,0,0,1,934,208.07c-20.21-16.57-38.38-35.62-56.69-54.23-18.87-19.2-37.39-38.87-53.56-60.44C816,83.08,809.51,72.16,802.55,61.34c-5.12-8-11.52-10.75-20.94-9.33-24.93,3.74-50.73,9.55-74.12,19-22.59,9.17-41,23.51-58.88,39.86-19.19,17.59-38.48,34.11-61.42,46.72C564.74,170,540.58,179,515.8,185.35c-54.37,14-111,14.77-166.78,12.56-14.58-.57-29.16-1.35-43.74-2.16-12.81-.71-26-.95-38.36-4.78-24.81-7.68-38.44-33.06-52.41-53.13-24.28-34.91-49.74-72.35-88-93.21C82.32,20.54,31.34,28.66-16.8,25.17A193.56,193.56,0,0,1-56.66,18.4a1.5,1.5,0,0,0-.8,2.89Z"/><rect class="cls-5" x="89.5" y="12.5" width="129" height="116"/><rect class="cls-6" x="468.5" y="40.5" width="101" height="65"/><rect class="cls-7" x="315.5" y="40.5" width="101" height="65"/><rect class="cls-8" x="934.5" y="106.5" width="101" height="65"/></svg>